<?xml version="1.0" encoding="iso-8859-1"?>
<!-- Uploaded to: SVG Repo, www.svgrepo.com, Generator: SVG Repo Mixer Tools -->
<svg version="1.1" id="Layer_1" xmlns="http://www.w3.org/2000/svg" xmlns:xlink="http://www.w3.org/1999/xlink" 
	 viewBox="0 0 472 472" xml:space="preserve">
<path style="fill:#E4C6A1;" d="M344,332h56v-16h-56V332z M424,308v40H248v-16h72v-16h-72v-8H424z"/>
<polygon style="fill:#FFF8EF;" points="424,252 424,292 248,292 248,276 400,276 400,260 248,260 248,252 272,252 "/>
<polygon style="fill:#E4C6A1;" points="280,196 456,196 456,236 432,236 280,236 280,220 408,220 408,204 280,204 "/>
<rect x="144" y="204" style="fill:#D9CDC1;" width="56" height="104"/>
<path style="fill:#FFF8EF;" d="M192,220v72c0,4.8-4,8-8,8h-24c-4.8,0-8-4-8-8v-72c0-4.8,4-8,8-8h24C188,212,192,216,192,220z"/>
<g>
	<rect x="144" y="324" style="fill:#1D9AAE;" width="56" height="24"/>
	<rect x="144" y="164" style="fill:#1D9AAE;" width="56" height="24"/>
</g>
<path style="fill:#E94545;" d="M88,276V100c0-4.8-3.2-8-8-8H56c-4.8,0-8,3.2-8,8v176c0,4,3.2,8,8,8h24C84.8,284,88,280,88,276z
	 M40,348V28h56v320H40z"/>
<g>
	<polygon style="fill:#996632;" points="448,364 448,396 424,396 368,396 96,396 40,396 16,396 16,364 32,364 104,364 136,364 
		208,364 240,364 432,364 	"/>
	<rect x="48" y="412" style="fill:#996632;" width="40" height="32"/>
	<rect x="376" y="412" style="fill:#996632;" width="40" height="32"/>
</g>
<g>
	<rect x="344" y="316" style="fill:#42210B;" width="56" height="16"/>
	<path style="fill:#42210B;" d="M72,268V108h-8v160H72z M88,100v176c0,4-3.2,8-8,8H56c-4.8,0-8-4-8-8V100c0-4.8,3.2-8,8-8h24
		C84.8,92,88,95.2,88,100z"/>
	<path style="fill:#42210B;" d="M88,444v-32H48v32H88z M200,188v-24h-56v24H200z M200,308V204h-56v104H200z M200,348v-24h-56v24H200
		z M40,348h56V28H40V348z M416,444v-32h-40v32H416z M424,292v-40H272h-24v8h152v16H248v16H424z M424,348v-40H248v8h72v16h-72v16H424
		z M448,396v-32h-16H240h-32h-72h-32H32H16v32h24h56h272h56H448z M456,236v-40H280v8h128v16H280v16h152H456z M472,188v56
		c0,4-4,8-8,8h-24v48v48h16c4,0,8,4,8,8v48c0,4-4,8-8,8h-24v40c0,4-4,8-8,8h-56c-4,0-8-4-8-8v-40H104v40c0,4-3.2,8-8,8H40
		c-4.8,0-8-4-8-8v-40H8c-4,0-8-4-8-8v-48c0-4,4-8,8-8h16V20c0-4.8,3.2-8,8-8h72c4,0,8,3.2,8,8v328h16v-32V196v-40c0-4,4-8,8-8h72
		c4,0,8,4,8,8v40v120v32h16v-48v-56c0-4,4-8,8-8h24v-48c0-4,4-8,8-8h192C468,180,472,184,472,188z"/>
</g>
<path style="fill:#875426;" d="M24,364v8.8c0,8,7.2,15.2,15.2,15.2H424c8.8,0,15.2-7.2,15.2-15.2V364h8v32H16v-32H24z"/>
</svg>